%TF.GenerationSoftware,KiCad,Pcbnew,9.0.1*%
%TF.CreationDate,2025-11-29T01:29:33+04:00*%
%TF.ProjectId,BC-LM2596-ADJ,42432d4c-4d32-4353-9936-2d41444a2e6b,rev?*%
%TF.SameCoordinates,Original*%
%TF.FileFunction,Copper,L2,Bot*%
%TF.FilePolarity,Positive*%
%FSLAX46Y46*%
G04 Gerber Fmt 4.6, Leading zero omitted, Abs format (unit mm)*
G04 Created by KiCad (PCBNEW 9.0.1) date 2025-11-29 01:29:33*
%MOMM*%
%LPD*%
G01*
G04 APERTURE LIST*
%TA.AperFunction,ComponentPad*%
%ADD10R,1.700000X1.700000*%
%TD*%
%TA.AperFunction,ComponentPad*%
%ADD11C,1.440000*%
%TD*%
%TA.AperFunction,ViaPad*%
%ADD12C,0.450000*%
%TD*%
G04 APERTURE END LIST*
D10*
%TO.P,J3,1,Pin_1*%
%TO.N,/VOUT*%
X131600000Y-71400000D03*
%TD*%
%TO.P,J4,1,Pin_1*%
%TO.N,GND*%
X131600000Y-89600000D03*
%TD*%
%TO.P,J1,1,Pin_1*%
%TO.N,/VIN*%
X91400000Y-71400000D03*
%TD*%
D11*
%TO.P,RV1,1,1*%
%TO.N,/VOUT*%
X122750000Y-72800000D03*
%TO.P,RV1,2,2*%
%TO.N,Net-(U1-FB)*%
X120210000Y-72800000D03*
%TO.P,RV1,3,3*%
X117670000Y-72800000D03*
%TD*%
D10*
%TO.P,J2,1,Pin_1*%
%TO.N,GND*%
X91400000Y-89600000D03*
%TD*%
D12*
%TO.N,GND*%
X109750000Y-84000000D03*
X109750000Y-86400000D03*
X109750000Y-84800000D03*
X114050000Y-73200000D03*
X109750000Y-85600000D03*
X128400000Y-73950000D03*
X104950000Y-81200000D03*
%TD*%
%TA.AperFunction,Conductor*%
%TO.N,GND*%
G36*
X130192539Y-70520185D02*
G01*
X130238294Y-70572989D01*
X130249500Y-70624500D01*
X130249500Y-72297870D01*
X130249501Y-72297876D01*
X130255908Y-72357483D01*
X130306202Y-72492328D01*
X130306206Y-72492335D01*
X130392452Y-72607544D01*
X130392455Y-72607547D01*
X130507664Y-72693793D01*
X130507671Y-72693797D01*
X130642517Y-72744091D01*
X130642516Y-72744091D01*
X130649444Y-72744835D01*
X130702127Y-72750500D01*
X132375500Y-72750499D01*
X132442539Y-72770184D01*
X132488294Y-72822987D01*
X132499500Y-72874499D01*
X132499500Y-90375500D01*
X132479815Y-90442539D01*
X132427011Y-90488294D01*
X132375500Y-90499500D01*
X90624500Y-90499500D01*
X90557461Y-90479815D01*
X90511706Y-90427011D01*
X90500500Y-90375500D01*
X90500500Y-72874499D01*
X90520185Y-72807460D01*
X90572989Y-72761705D01*
X90624495Y-72750499D01*
X92297872Y-72750499D01*
X92357483Y-72744091D01*
X92465120Y-72703945D01*
X116449500Y-72703945D01*
X116449500Y-72896054D01*
X116479553Y-73085802D01*
X116538916Y-73268506D01*
X116538918Y-73268509D01*
X116626135Y-73439681D01*
X116739055Y-73595102D01*
X116874898Y-73730945D01*
X117030319Y-73843865D01*
X117201491Y-73931082D01*
X117201493Y-73931083D01*
X117292845Y-73960764D01*
X117384199Y-73990447D01*
X117573945Y-74020500D01*
X117573946Y-74020500D01*
X117766054Y-74020500D01*
X117766055Y-74020500D01*
X117955801Y-73990447D01*
X118138509Y-73931082D01*
X118309681Y-73843865D01*
X118465102Y-73730945D01*
X118600945Y-73595102D01*
X118713865Y-73439681D01*
X118801082Y-73268509D01*
X118801084Y-73268504D01*
X118822069Y-73203919D01*
X118861506Y-73146243D01*
X118925864Y-73119044D01*
X118994711Y-73130958D01*
X119046187Y-73178202D01*
X119057931Y-73203919D01*
X119078915Y-73268504D01*
X119078918Y-73268509D01*
X119166135Y-73439681D01*
X119279055Y-73595102D01*
X119414898Y-73730945D01*
X119570319Y-73843865D01*
X119741491Y-73931082D01*
X119741493Y-73931083D01*
X119832845Y-73960764D01*
X119924199Y-73990447D01*
X120113945Y-74020500D01*
X120113946Y-74020500D01*
X120306054Y-74020500D01*
X120306055Y-74020500D01*
X120495801Y-73990447D01*
X120678509Y-73931082D01*
X120849681Y-73843865D01*
X121005102Y-73730945D01*
X121140945Y-73595102D01*
X121253865Y-73439681D01*
X121341082Y-73268509D01*
X121341084Y-73268504D01*
X121362069Y-73203919D01*
X121401506Y-73146243D01*
X121465864Y-73119044D01*
X121534711Y-73130958D01*
X121586187Y-73178202D01*
X121597931Y-73203919D01*
X121618915Y-73268504D01*
X121618918Y-73268509D01*
X121706135Y-73439681D01*
X121819055Y-73595102D01*
X121954898Y-73730945D01*
X122110319Y-73843865D01*
X122281491Y-73931082D01*
X122281493Y-73931083D01*
X122372845Y-73960764D01*
X122464199Y-73990447D01*
X122653945Y-74020500D01*
X122653946Y-74020500D01*
X122846054Y-74020500D01*
X122846055Y-74020500D01*
X123035801Y-73990447D01*
X123218509Y-73931082D01*
X123389681Y-73843865D01*
X123545102Y-73730945D01*
X123680945Y-73595102D01*
X123793865Y-73439681D01*
X123881082Y-73268509D01*
X123940447Y-73085801D01*
X123970500Y-72896055D01*
X123970500Y-72703945D01*
X123940447Y-72514199D01*
X123910424Y-72421797D01*
X123881083Y-72331493D01*
X123793864Y-72160318D01*
X123680945Y-72004898D01*
X123545102Y-71869055D01*
X123389681Y-71756135D01*
X123218506Y-71668916D01*
X123035802Y-71609553D01*
X122940928Y-71594526D01*
X122846055Y-71579500D01*
X122653945Y-71579500D01*
X122590696Y-71589517D01*
X122464197Y-71609553D01*
X122281493Y-71668916D01*
X122110318Y-71756135D01*
X122021645Y-71820560D01*
X121954898Y-71869055D01*
X121954896Y-71869057D01*
X121954895Y-71869057D01*
X121819057Y-72004895D01*
X121819057Y-72004896D01*
X121819055Y-72004898D01*
X121770560Y-72071645D01*
X121706135Y-72160318D01*
X121618916Y-72331493D01*
X121597931Y-72396081D01*
X121558494Y-72453756D01*
X121494135Y-72480955D01*
X121425289Y-72469041D01*
X121373813Y-72421797D01*
X121362069Y-72396081D01*
X121341083Y-72331493D01*
X121253864Y-72160318D01*
X121140945Y-72004898D01*
X121005102Y-71869055D01*
X120849681Y-71756135D01*
X120678506Y-71668916D01*
X120495802Y-71609553D01*
X120400928Y-71594526D01*
X120306055Y-71579500D01*
X120113945Y-71579500D01*
X120050696Y-71589517D01*
X119924197Y-71609553D01*
X119741493Y-71668916D01*
X119570318Y-71756135D01*
X119481645Y-71820560D01*
X119414898Y-71869055D01*
X119414896Y-71869057D01*
X119414895Y-71869057D01*
X119279057Y-72004895D01*
X119279057Y-72004896D01*
X119279055Y-72004898D01*
X119230560Y-72071645D01*
X119166135Y-72160318D01*
X119078916Y-72331493D01*
X119057931Y-72396081D01*
X119018494Y-72453756D01*
X118954135Y-72480955D01*
X118885289Y-72469041D01*
X118833813Y-72421797D01*
X118822069Y-72396081D01*
X118801083Y-72331493D01*
X118713864Y-72160318D01*
X118600945Y-72004898D01*
X118465102Y-71869055D01*
X118309681Y-71756135D01*
X118138506Y-71668916D01*
X117955802Y-71609553D01*
X117860928Y-71594526D01*
X117766055Y-71579500D01*
X117573945Y-71579500D01*
X117510696Y-71589517D01*
X117384197Y-71609553D01*
X117201493Y-71668916D01*
X117030318Y-71756135D01*
X116941645Y-71820560D01*
X116874898Y-71869055D01*
X116874896Y-71869057D01*
X116874895Y-71869057D01*
X116739057Y-72004895D01*
X116739057Y-72004896D01*
X116739055Y-72004898D01*
X116690560Y-72071645D01*
X116626135Y-72160318D01*
X116538916Y-72331493D01*
X116479553Y-72514197D01*
X116449500Y-72703945D01*
X92465120Y-72703945D01*
X92492331Y-72693796D01*
X92607546Y-72607546D01*
X92693796Y-72492331D01*
X92744091Y-72357483D01*
X92750500Y-72297873D01*
X92750499Y-70624499D01*
X92770184Y-70557461D01*
X92822987Y-70511706D01*
X92874499Y-70500500D01*
X130125500Y-70500500D01*
X130192539Y-70520185D01*
G37*
%TD.AperFunction*%
%TD*%
M02*
