%TF.GenerationSoftware,KiCad,Pcbnew,9.0.1*%
%TF.CreationDate,2025-11-29T01:29:33+04:00*%
%TF.ProjectId,BC-LM2596-ADJ,42432d4c-4d32-4353-9936-2d41444a2e6b,rev?*%
%TF.SameCoordinates,Original*%
%TF.FileFunction,Legend,Top*%
%TF.FilePolarity,Positive*%
%FSLAX46Y46*%
G04 Gerber Fmt 4.6, Leading zero omitted, Abs format (unit mm)*
G04 Created by KiCad (PCBNEW 9.0.1) date 2025-11-29 01:29:33*
%MOMM*%
%LPD*%
G01*
G04 APERTURE LIST*
%ADD10C,0.200000*%
%ADD11C,0.150000*%
%ADD12C,0.120000*%
%ADD13C,0.000000*%
G04 APERTURE END LIST*
D10*
X131536266Y-87020906D02*
X131536266Y-86259002D01*
X125976816Y-88817219D02*
X126310149Y-89817219D01*
X126310149Y-89817219D02*
X126643482Y-88817219D01*
X127167292Y-88817219D02*
X127357768Y-88817219D01*
X127357768Y-88817219D02*
X127453006Y-88864838D01*
X127453006Y-88864838D02*
X127548244Y-88960076D01*
X127548244Y-88960076D02*
X127595863Y-89150552D01*
X127595863Y-89150552D02*
X127595863Y-89483885D01*
X127595863Y-89483885D02*
X127548244Y-89674361D01*
X127548244Y-89674361D02*
X127453006Y-89769600D01*
X127453006Y-89769600D02*
X127357768Y-89817219D01*
X127357768Y-89817219D02*
X127167292Y-89817219D01*
X127167292Y-89817219D02*
X127072054Y-89769600D01*
X127072054Y-89769600D02*
X126976816Y-89674361D01*
X126976816Y-89674361D02*
X126929197Y-89483885D01*
X126929197Y-89483885D02*
X126929197Y-89150552D01*
X126929197Y-89150552D02*
X126976816Y-88960076D01*
X126976816Y-88960076D02*
X127072054Y-88864838D01*
X127072054Y-88864838D02*
X127167292Y-88817219D01*
X128024435Y-88817219D02*
X128024435Y-89626742D01*
X128024435Y-89626742D02*
X128072054Y-89721980D01*
X128072054Y-89721980D02*
X128119673Y-89769600D01*
X128119673Y-89769600D02*
X128214911Y-89817219D01*
X128214911Y-89817219D02*
X128405387Y-89817219D01*
X128405387Y-89817219D02*
X128500625Y-89769600D01*
X128500625Y-89769600D02*
X128548244Y-89721980D01*
X128548244Y-89721980D02*
X128595863Y-89626742D01*
X128595863Y-89626742D02*
X128595863Y-88817219D01*
X128929197Y-88817219D02*
X129500625Y-88817219D01*
X129214911Y-89817219D02*
X129214911Y-88817219D01*
X131169673Y-73886266D02*
X131931578Y-73886266D01*
X131550625Y-74267219D02*
X131550625Y-73505314D01*
X93626816Y-88817219D02*
X93960149Y-89817219D01*
X93960149Y-89817219D02*
X94293482Y-88817219D01*
X94626816Y-89817219D02*
X94626816Y-88817219D01*
X95103006Y-89817219D02*
X95103006Y-88817219D01*
X95103006Y-88817219D02*
X95674434Y-89817219D01*
X95674434Y-89817219D02*
X95674434Y-88817219D01*
X91336266Y-87020906D02*
X91336266Y-86259002D01*
X90919673Y-73886266D02*
X91681578Y-73886266D01*
X91300625Y-74267219D02*
X91300625Y-73505314D01*
D11*
X107761905Y-89404819D02*
X107761905Y-88404819D01*
X107761905Y-88404819D02*
X108000000Y-88404819D01*
X108000000Y-88404819D02*
X108142857Y-88452438D01*
X108142857Y-88452438D02*
X108238095Y-88547676D01*
X108238095Y-88547676D02*
X108285714Y-88642914D01*
X108285714Y-88642914D02*
X108333333Y-88833390D01*
X108333333Y-88833390D02*
X108333333Y-88976247D01*
X108333333Y-88976247D02*
X108285714Y-89166723D01*
X108285714Y-89166723D02*
X108238095Y-89261961D01*
X108238095Y-89261961D02*
X108142857Y-89357200D01*
X108142857Y-89357200D02*
X108000000Y-89404819D01*
X108000000Y-89404819D02*
X107761905Y-89404819D01*
X108714286Y-88500057D02*
X108761905Y-88452438D01*
X108761905Y-88452438D02*
X108857143Y-88404819D01*
X108857143Y-88404819D02*
X109095238Y-88404819D01*
X109095238Y-88404819D02*
X109190476Y-88452438D01*
X109190476Y-88452438D02*
X109238095Y-88500057D01*
X109238095Y-88500057D02*
X109285714Y-88595295D01*
X109285714Y-88595295D02*
X109285714Y-88690533D01*
X109285714Y-88690533D02*
X109238095Y-88833390D01*
X109238095Y-88833390D02*
X108666667Y-89404819D01*
X108666667Y-89404819D02*
X109285714Y-89404819D01*
X128483333Y-87309580D02*
X128435714Y-87357200D01*
X128435714Y-87357200D02*
X128292857Y-87404819D01*
X128292857Y-87404819D02*
X128197619Y-87404819D01*
X128197619Y-87404819D02*
X128054762Y-87357200D01*
X128054762Y-87357200D02*
X127959524Y-87261961D01*
X127959524Y-87261961D02*
X127911905Y-87166723D01*
X127911905Y-87166723D02*
X127864286Y-86976247D01*
X127864286Y-86976247D02*
X127864286Y-86833390D01*
X127864286Y-86833390D02*
X127911905Y-86642914D01*
X127911905Y-86642914D02*
X127959524Y-86547676D01*
X127959524Y-86547676D02*
X128054762Y-86452438D01*
X128054762Y-86452438D02*
X128197619Y-86404819D01*
X128197619Y-86404819D02*
X128292857Y-86404819D01*
X128292857Y-86404819D02*
X128435714Y-86452438D01*
X128435714Y-86452438D02*
X128483333Y-86500057D01*
X128816667Y-86404819D02*
X129435714Y-86404819D01*
X129435714Y-86404819D02*
X129102381Y-86785771D01*
X129102381Y-86785771D02*
X129245238Y-86785771D01*
X129245238Y-86785771D02*
X129340476Y-86833390D01*
X129340476Y-86833390D02*
X129388095Y-86881009D01*
X129388095Y-86881009D02*
X129435714Y-86976247D01*
X129435714Y-86976247D02*
X129435714Y-87214342D01*
X129435714Y-87214342D02*
X129388095Y-87309580D01*
X129388095Y-87309580D02*
X129340476Y-87357200D01*
X129340476Y-87357200D02*
X129245238Y-87404819D01*
X129245238Y-87404819D02*
X128959524Y-87404819D01*
X128959524Y-87404819D02*
X128864286Y-87357200D01*
X128864286Y-87357200D02*
X128816667Y-87309580D01*
X127661905Y-74854819D02*
X127661905Y-73854819D01*
X127661905Y-73854819D02*
X127900000Y-73854819D01*
X127900000Y-73854819D02*
X128042857Y-73902438D01*
X128042857Y-73902438D02*
X128138095Y-73997676D01*
X128138095Y-73997676D02*
X128185714Y-74092914D01*
X128185714Y-74092914D02*
X128233333Y-74283390D01*
X128233333Y-74283390D02*
X128233333Y-74426247D01*
X128233333Y-74426247D02*
X128185714Y-74616723D01*
X128185714Y-74616723D02*
X128138095Y-74711961D01*
X128138095Y-74711961D02*
X128042857Y-74807200D01*
X128042857Y-74807200D02*
X127900000Y-74854819D01*
X127900000Y-74854819D02*
X127661905Y-74854819D01*
X129185714Y-74854819D02*
X128614286Y-74854819D01*
X128900000Y-74854819D02*
X128900000Y-73854819D01*
X128900000Y-73854819D02*
X128804762Y-73997676D01*
X128804762Y-73997676D02*
X128709524Y-74092914D01*
X128709524Y-74092914D02*
X128614286Y-74140533D01*
X99138095Y-81854819D02*
X99138095Y-82664342D01*
X99138095Y-82664342D02*
X99185714Y-82759580D01*
X99185714Y-82759580D02*
X99233333Y-82807200D01*
X99233333Y-82807200D02*
X99328571Y-82854819D01*
X99328571Y-82854819D02*
X99519047Y-82854819D01*
X99519047Y-82854819D02*
X99614285Y-82807200D01*
X99614285Y-82807200D02*
X99661904Y-82759580D01*
X99661904Y-82759580D02*
X99709523Y-82664342D01*
X99709523Y-82664342D02*
X99709523Y-81854819D01*
X100709523Y-82854819D02*
X100138095Y-82854819D01*
X100423809Y-82854819D02*
X100423809Y-81854819D01*
X100423809Y-81854819D02*
X100328571Y-81997676D01*
X100328571Y-81997676D02*
X100233333Y-82092914D01*
X100233333Y-82092914D02*
X100138095Y-82140533D01*
X122654761Y-76704819D02*
X122321428Y-76228628D01*
X122083333Y-76704819D02*
X122083333Y-75704819D01*
X122083333Y-75704819D02*
X122464285Y-75704819D01*
X122464285Y-75704819D02*
X122559523Y-75752438D01*
X122559523Y-75752438D02*
X122607142Y-75800057D01*
X122607142Y-75800057D02*
X122654761Y-75895295D01*
X122654761Y-75895295D02*
X122654761Y-76038152D01*
X122654761Y-76038152D02*
X122607142Y-76133390D01*
X122607142Y-76133390D02*
X122559523Y-76181009D01*
X122559523Y-76181009D02*
X122464285Y-76228628D01*
X122464285Y-76228628D02*
X122083333Y-76228628D01*
X122940476Y-75704819D02*
X123273809Y-76704819D01*
X123273809Y-76704819D02*
X123607142Y-75704819D01*
X124464285Y-76704819D02*
X123892857Y-76704819D01*
X124178571Y-76704819D02*
X124178571Y-75704819D01*
X124178571Y-75704819D02*
X124083333Y-75847676D01*
X124083333Y-75847676D02*
X123988095Y-75942914D01*
X123988095Y-75942914D02*
X123892857Y-75990533D01*
X95533333Y-87609580D02*
X95485714Y-87657200D01*
X95485714Y-87657200D02*
X95342857Y-87704819D01*
X95342857Y-87704819D02*
X95247619Y-87704819D01*
X95247619Y-87704819D02*
X95104762Y-87657200D01*
X95104762Y-87657200D02*
X95009524Y-87561961D01*
X95009524Y-87561961D02*
X94961905Y-87466723D01*
X94961905Y-87466723D02*
X94914286Y-87276247D01*
X94914286Y-87276247D02*
X94914286Y-87133390D01*
X94914286Y-87133390D02*
X94961905Y-86942914D01*
X94961905Y-86942914D02*
X95009524Y-86847676D01*
X95009524Y-86847676D02*
X95104762Y-86752438D01*
X95104762Y-86752438D02*
X95247619Y-86704819D01*
X95247619Y-86704819D02*
X95342857Y-86704819D01*
X95342857Y-86704819D02*
X95485714Y-86752438D01*
X95485714Y-86752438D02*
X95533333Y-86800057D01*
X95914286Y-86800057D02*
X95961905Y-86752438D01*
X95961905Y-86752438D02*
X96057143Y-86704819D01*
X96057143Y-86704819D02*
X96295238Y-86704819D01*
X96295238Y-86704819D02*
X96390476Y-86752438D01*
X96390476Y-86752438D02*
X96438095Y-86800057D01*
X96438095Y-86800057D02*
X96485714Y-86895295D01*
X96485714Y-86895295D02*
X96485714Y-86990533D01*
X96485714Y-86990533D02*
X96438095Y-87133390D01*
X96438095Y-87133390D02*
X95866667Y-87704819D01*
X95866667Y-87704819D02*
X96485714Y-87704819D01*
X91483333Y-76109580D02*
X91435714Y-76157200D01*
X91435714Y-76157200D02*
X91292857Y-76204819D01*
X91292857Y-76204819D02*
X91197619Y-76204819D01*
X91197619Y-76204819D02*
X91054762Y-76157200D01*
X91054762Y-76157200D02*
X90959524Y-76061961D01*
X90959524Y-76061961D02*
X90911905Y-75966723D01*
X90911905Y-75966723D02*
X90864286Y-75776247D01*
X90864286Y-75776247D02*
X90864286Y-75633390D01*
X90864286Y-75633390D02*
X90911905Y-75442914D01*
X90911905Y-75442914D02*
X90959524Y-75347676D01*
X90959524Y-75347676D02*
X91054762Y-75252438D01*
X91054762Y-75252438D02*
X91197619Y-75204819D01*
X91197619Y-75204819D02*
X91292857Y-75204819D01*
X91292857Y-75204819D02*
X91435714Y-75252438D01*
X91435714Y-75252438D02*
X91483333Y-75300057D01*
X92435714Y-76204819D02*
X91864286Y-76204819D01*
X92150000Y-76204819D02*
X92150000Y-75204819D01*
X92150000Y-75204819D02*
X92054762Y-75347676D01*
X92054762Y-75347676D02*
X91959524Y-75442914D01*
X91959524Y-75442914D02*
X91864286Y-75490533D01*
X126333333Y-74754819D02*
X126000000Y-74278628D01*
X125761905Y-74754819D02*
X125761905Y-73754819D01*
X125761905Y-73754819D02*
X126142857Y-73754819D01*
X126142857Y-73754819D02*
X126238095Y-73802438D01*
X126238095Y-73802438D02*
X126285714Y-73850057D01*
X126285714Y-73850057D02*
X126333333Y-73945295D01*
X126333333Y-73945295D02*
X126333333Y-74088152D01*
X126333333Y-74088152D02*
X126285714Y-74183390D01*
X126285714Y-74183390D02*
X126238095Y-74231009D01*
X126238095Y-74231009D02*
X126142857Y-74278628D01*
X126142857Y-74278628D02*
X125761905Y-74278628D01*
X127285714Y-74754819D02*
X126714286Y-74754819D01*
X127000000Y-74754819D02*
X127000000Y-73754819D01*
X127000000Y-73754819D02*
X126904762Y-73897676D01*
X126904762Y-73897676D02*
X126809524Y-73992914D01*
X126809524Y-73992914D02*
X126714286Y-74040533D01*
X114409580Y-74916666D02*
X114457200Y-74964285D01*
X114457200Y-74964285D02*
X114504819Y-75107142D01*
X114504819Y-75107142D02*
X114504819Y-75202380D01*
X114504819Y-75202380D02*
X114457200Y-75345237D01*
X114457200Y-75345237D02*
X114361961Y-75440475D01*
X114361961Y-75440475D02*
X114266723Y-75488094D01*
X114266723Y-75488094D02*
X114076247Y-75535713D01*
X114076247Y-75535713D02*
X113933390Y-75535713D01*
X113933390Y-75535713D02*
X113742914Y-75488094D01*
X113742914Y-75488094D02*
X113647676Y-75440475D01*
X113647676Y-75440475D02*
X113552438Y-75345237D01*
X113552438Y-75345237D02*
X113504819Y-75202380D01*
X113504819Y-75202380D02*
X113504819Y-75107142D01*
X113504819Y-75107142D02*
X113552438Y-74964285D01*
X113552438Y-74964285D02*
X113600057Y-74916666D01*
X113838152Y-74059523D02*
X114504819Y-74059523D01*
X113457200Y-74297618D02*
X114171485Y-74535713D01*
X114171485Y-74535713D02*
X114171485Y-73916666D01*
X114504819Y-71841666D02*
X114028628Y-72174999D01*
X114504819Y-72413094D02*
X113504819Y-72413094D01*
X113504819Y-72413094D02*
X113504819Y-72032142D01*
X113504819Y-72032142D02*
X113552438Y-71936904D01*
X113552438Y-71936904D02*
X113600057Y-71889285D01*
X113600057Y-71889285D02*
X113695295Y-71841666D01*
X113695295Y-71841666D02*
X113838152Y-71841666D01*
X113838152Y-71841666D02*
X113933390Y-71889285D01*
X113933390Y-71889285D02*
X113981009Y-71936904D01*
X113981009Y-71936904D02*
X114028628Y-72032142D01*
X114028628Y-72032142D02*
X114028628Y-72413094D01*
X113504819Y-71508332D02*
X113504819Y-70889285D01*
X113504819Y-70889285D02*
X113885771Y-71222618D01*
X113885771Y-71222618D02*
X113885771Y-71079761D01*
X113885771Y-71079761D02*
X113933390Y-70984523D01*
X113933390Y-70984523D02*
X113981009Y-70936904D01*
X113981009Y-70936904D02*
X114076247Y-70889285D01*
X114076247Y-70889285D02*
X114314342Y-70889285D01*
X114314342Y-70889285D02*
X114409580Y-70936904D01*
X114409580Y-70936904D02*
X114457200Y-70984523D01*
X114457200Y-70984523D02*
X114504819Y-71079761D01*
X114504819Y-71079761D02*
X114504819Y-71365475D01*
X114504819Y-71365475D02*
X114457200Y-71460713D01*
X114457200Y-71460713D02*
X114409580Y-71508332D01*
X125404819Y-86416666D02*
X125404819Y-86892856D01*
X125404819Y-86892856D02*
X124404819Y-86892856D01*
X125404819Y-85559523D02*
X125404819Y-86130951D01*
X125404819Y-85845237D02*
X124404819Y-85845237D01*
X124404819Y-85845237D02*
X124547676Y-85940475D01*
X124547676Y-85940475D02*
X124642914Y-86035713D01*
X124642914Y-86035713D02*
X124690533Y-86130951D01*
D12*
%TO.C,D2*%
X107360000Y-87300000D02*
X101850000Y-87300000D01*
X107360000Y-90600000D02*
X101850000Y-90600000D01*
X107360000Y-90600000D02*
X107360000Y-87300000D01*
%TO.C,C3*%
X124240000Y-77396937D02*
X124240000Y-84852500D01*
X124240000Y-84852500D02*
X126990000Y-84852500D01*
X125304437Y-76332500D02*
X124240000Y-77396937D01*
X125304437Y-76332500D02*
X126990000Y-76332500D01*
X131010000Y-75092500D02*
X131010000Y-76092500D01*
X131510000Y-75592500D02*
X130510000Y-75592500D01*
X131695563Y-76332500D02*
X130010000Y-76332500D01*
X131695563Y-76332500D02*
X132760000Y-77396937D01*
X132760000Y-77396937D02*
X132760000Y-84852500D01*
X132760000Y-84852500D02*
X130010000Y-84852500D01*
%TO.C,D1*%
X127665000Y-71250000D02*
X127665000Y-73535000D01*
X127665000Y-73535000D02*
X129135000Y-73535000D01*
X129135000Y-73535000D02*
X129135000Y-71250000D01*
%TO.C,U1*%
X99650000Y-80160000D02*
X99650000Y-81525000D01*
X99650000Y-81525000D02*
X100600000Y-81525000D01*
X110050000Y-80160000D02*
X110050000Y-81525000D01*
X110050000Y-81525000D02*
X109100000Y-81525000D01*
X100640000Y-84350000D02*
X100170000Y-84690000D01*
X100170000Y-84010000D01*
X100640000Y-84350000D01*
G36*
X100640000Y-84350000D02*
G01*
X100170000Y-84690000D01*
X100170000Y-84010000D01*
X100640000Y-84350000D01*
G37*
%TO.C,J3*%
X130220000Y-70020000D02*
X130220000Y-72780000D01*
X130330000Y-70020000D02*
X130220000Y-70020000D01*
X130330000Y-70020000D02*
X130330000Y-72780000D01*
X130330000Y-72780000D02*
X130220000Y-72780000D01*
X131600000Y-70020000D02*
X132980000Y-70020000D01*
X132980000Y-70020000D02*
X132980000Y-71400000D01*
%TO.C,J4*%
X130220000Y-88330000D02*
X130220000Y-88220000D01*
X132980000Y-88220000D02*
X130220000Y-88220000D01*
X132980000Y-88330000D02*
X130220000Y-88330000D01*
X132980000Y-88330000D02*
X132980000Y-88220000D01*
X132980000Y-89600000D02*
X132980000Y-90980000D01*
X132980000Y-90980000D02*
X131600000Y-90980000D01*
%TO.C,J1*%
X90020000Y-70020000D02*
X91400000Y-70020000D01*
X90020000Y-71400000D02*
X90020000Y-70020000D01*
X90020000Y-72670000D02*
X90020000Y-72780000D01*
X90020000Y-72670000D02*
X92780000Y-72670000D01*
X90020000Y-72780000D02*
X92780000Y-72780000D01*
X92780000Y-72670000D02*
X92780000Y-72780000D01*
D13*
%TO.C,G\u002A\u002A\u002A*%
G36*
X97332762Y-73602157D02*
G01*
X97350312Y-73611783D01*
X97362932Y-73633608D01*
X97371288Y-73672359D01*
X97376044Y-73732768D01*
X97377864Y-73819563D01*
X97377414Y-73937474D01*
X97375679Y-74070000D01*
X97370000Y-74450000D01*
X97315000Y-74456328D01*
X97260000Y-74462656D01*
X97260000Y-74031328D01*
X97260000Y-73600000D01*
X97309618Y-73600000D01*
X97332762Y-73602157D01*
G37*
G36*
X97315000Y-73303671D02*
G01*
X97348983Y-73311142D01*
X97365034Y-73330902D01*
X97369781Y-73374557D01*
X97370000Y-73400000D01*
X97367823Y-73455859D01*
X97356877Y-73483385D01*
X97330532Y-73494183D01*
X97315000Y-73496328D01*
X97282764Y-73497840D01*
X97266481Y-73486350D01*
X97260708Y-73452324D01*
X97260000Y-73400000D01*
X97261177Y-73339968D01*
X97268337Y-73310400D01*
X97286922Y-73301763D01*
X97315000Y-73303671D01*
G37*
G36*
X96775212Y-73591806D02*
G01*
X96874318Y-73619048D01*
X96952689Y-73663399D01*
X97012220Y-73728597D01*
X97054803Y-73818380D01*
X97082333Y-73936485D01*
X97096704Y-74086649D01*
X97100000Y-74232729D01*
X97100000Y-74460000D01*
X97040000Y-74460000D01*
X96980000Y-74460000D01*
X96980000Y-74174687D01*
X96978003Y-74036468D01*
X96970718Y-73931805D01*
X96956200Y-73854395D01*
X96932508Y-73797936D01*
X96897699Y-73756125D01*
X96849828Y-73722657D01*
X96838766Y-73716545D01*
X96759238Y-73685611D01*
X96683177Y-73685461D01*
X96609795Y-73708796D01*
X96557084Y-73736002D01*
X96518092Y-73771259D01*
X96490869Y-73820511D01*
X96473465Y-73889704D01*
X96463927Y-73984781D01*
X96460305Y-74111689D01*
X96460074Y-74165000D01*
X96460000Y-74460000D01*
X96400000Y-74460000D01*
X96340000Y-74460000D01*
X96340000Y-74030000D01*
X96340000Y-73600000D01*
X96390000Y-73600000D01*
X96430860Y-73612889D01*
X96444893Y-73653411D01*
X96442368Y-73685000D01*
X96450376Y-73699908D01*
X96476604Y-73690065D01*
X96507222Y-73663069D01*
X96563475Y-73624238D01*
X96642487Y-73597717D01*
X96727811Y-73587878D01*
X96775212Y-73591806D01*
G37*
G36*
X98087669Y-73606024D02*
G01*
X98196026Y-73648105D01*
X98287856Y-73716771D01*
X98352413Y-73805000D01*
X98369905Y-73843173D01*
X98362965Y-73857704D01*
X98327533Y-73860000D01*
X98269035Y-73841382D01*
X98206730Y-73790692D01*
X98118990Y-73725337D01*
X98021602Y-73693445D01*
X97921460Y-73692248D01*
X97825460Y-73718980D01*
X97740496Y-73770873D01*
X97673464Y-73845159D01*
X97631257Y-73939071D01*
X97620000Y-74026200D01*
X97637134Y-74139614D01*
X97684205Y-74233997D01*
X97754719Y-74306827D01*
X97842178Y-74355583D01*
X97940087Y-74377744D01*
X98041950Y-74370789D01*
X98141270Y-74332196D01*
X98228741Y-74262463D01*
X98274235Y-74225484D01*
X98321554Y-74203710D01*
X98360130Y-74199907D01*
X98379394Y-74216843D01*
X98380000Y-74222857D01*
X98364553Y-74256542D01*
X98324393Y-74303269D01*
X98268787Y-74354980D01*
X98207003Y-74403614D01*
X98148309Y-74441115D01*
X98110000Y-74457630D01*
X97993950Y-74476445D01*
X97881660Y-74471018D01*
X97839870Y-74461313D01*
X97712140Y-74404642D01*
X97614593Y-74322591D01*
X97548811Y-74217247D01*
X97516375Y-74090698D01*
X97513074Y-74030000D01*
X97523945Y-73916437D01*
X97560535Y-73822728D01*
X97628808Y-73734559D01*
X97641597Y-73721479D01*
X97739749Y-73648254D01*
X97851899Y-73605202D01*
X97970417Y-73591424D01*
X98087669Y-73606024D01*
G37*
G36*
X93484212Y-73844312D02*
G01*
X93539275Y-73984650D01*
X93589981Y-74114012D01*
X93634371Y-74227394D01*
X93670489Y-74319792D01*
X93696376Y-74386200D01*
X93710075Y-74421613D01*
X93711352Y-74425000D01*
X93713995Y-74442456D01*
X93701197Y-74452934D01*
X93665713Y-74458170D01*
X93600298Y-74459900D01*
X93565305Y-74460000D01*
X93406331Y-74460000D01*
X93382362Y-74380000D01*
X93358394Y-74300000D01*
X93152398Y-74300000D01*
X92946402Y-74300000D01*
X92920000Y-74380000D01*
X92893597Y-74460000D01*
X92736798Y-74460000D01*
X92663313Y-74459269D01*
X92608278Y-74457332D01*
X92581257Y-74454566D01*
X92580000Y-74453779D01*
X92587154Y-74434383D01*
X92607416Y-74382423D01*
X92638978Y-74302454D01*
X92680037Y-74199029D01*
X92728786Y-74076703D01*
X92740695Y-74046912D01*
X93040000Y-74046912D01*
X93058160Y-74053856D01*
X93105308Y-74058602D01*
X93158379Y-74060000D01*
X93276759Y-74060000D01*
X93226309Y-73895000D01*
X93201658Y-73816707D01*
X93179860Y-73751622D01*
X93164548Y-73710453D01*
X93161411Y-73703707D01*
X93149512Y-73708696D01*
X93130221Y-73747894D01*
X93105619Y-73816647D01*
X93093481Y-73855619D01*
X93070119Y-73934787D01*
X93051932Y-73998935D01*
X93041501Y-74038832D01*
X93040000Y-74046912D01*
X92740695Y-74046912D01*
X92783421Y-73940028D01*
X92807953Y-73878779D01*
X93035907Y-73310000D01*
X93152953Y-73304312D01*
X93270000Y-73298625D01*
X93484212Y-73844312D01*
G37*
G36*
X95914781Y-73588678D02*
G01*
X96016529Y-73638935D01*
X96103273Y-73717537D01*
X96168032Y-73822106D01*
X96171420Y-73830000D01*
X96193192Y-73911132D01*
X96203066Y-74010899D01*
X96200619Y-74111729D01*
X96185425Y-74196052D01*
X96180617Y-74209911D01*
X96123432Y-74312752D01*
X96043147Y-74398073D01*
X95979638Y-74440184D01*
X95881011Y-74471955D01*
X95769545Y-74479067D01*
X95662711Y-74461427D01*
X95614228Y-74442155D01*
X95540000Y-74404311D01*
X95540000Y-74572155D01*
X95540000Y-74740000D01*
X95410000Y-74740000D01*
X95280000Y-74740000D01*
X95280000Y-74170000D01*
X95280000Y-74027637D01*
X95525744Y-74027637D01*
X95528819Y-74070738D01*
X95560727Y-74144317D01*
X95619028Y-74199886D01*
X95693231Y-74233015D01*
X95772846Y-74239272D01*
X95847383Y-74214227D01*
X95855664Y-74208785D01*
X95917582Y-74146127D01*
X95947406Y-74073742D01*
X95948848Y-73998583D01*
X95925622Y-73927604D01*
X95881441Y-73867759D01*
X95820018Y-73826001D01*
X95745067Y-73809283D01*
X95660301Y-73824560D01*
X95652202Y-73827790D01*
X95588514Y-73874251D01*
X95544095Y-73945330D01*
X95525744Y-74027637D01*
X95280000Y-74027637D01*
X95280000Y-73600000D01*
X95400000Y-73600000D01*
X95467087Y-73601491D01*
X95503338Y-73607961D01*
X95517869Y-73622402D01*
X95520000Y-73639397D01*
X95522280Y-73662593D01*
X95535214Y-73665173D01*
X95567937Y-73646129D01*
X95589324Y-73631749D01*
X95694196Y-73582707D01*
X95805009Y-73569142D01*
X95914781Y-73588678D01*
G37*
G36*
X98809341Y-73606228D02*
G01*
X98883355Y-73652595D01*
X98935915Y-73723410D01*
X98950741Y-73765000D01*
X98956313Y-73804027D01*
X98939031Y-73818248D01*
X98906552Y-73820000D01*
X98860436Y-73810878D01*
X98832709Y-73776018D01*
X98826462Y-73760902D01*
X98790310Y-73708967D01*
X98739580Y-73685907D01*
X98684867Y-73689510D01*
X98636765Y-73717565D01*
X98605870Y-73767862D01*
X98600000Y-73808160D01*
X98609251Y-73860718D01*
X98641236Y-73901222D01*
X98702303Y-73935448D01*
X98765339Y-73958630D01*
X98827951Y-73988656D01*
X98892776Y-74033645D01*
X98910339Y-74049024D01*
X98954687Y-74096891D01*
X98974977Y-74142021D01*
X98979992Y-74204507D01*
X98980000Y-74208354D01*
X98966155Y-74314983D01*
X98924045Y-74394098D01*
X98852858Y-74447303D01*
X98750466Y-74476767D01*
X98651031Y-74468983D01*
X98585970Y-74440809D01*
X98523261Y-74385836D01*
X98478062Y-74314414D01*
X98460021Y-74241946D01*
X98460000Y-74239664D01*
X98467958Y-74209076D01*
X98499251Y-74202428D01*
X98512508Y-74203671D01*
X98554127Y-74219506D01*
X98581098Y-74261534D01*
X98587508Y-74279570D01*
X98624428Y-74339925D01*
X98680368Y-74372653D01*
X98744821Y-74377116D01*
X98807281Y-74352672D01*
X98857241Y-74298682D01*
X98858720Y-74296097D01*
X98879939Y-74238903D01*
X98872522Y-74187870D01*
X98833653Y-74138895D01*
X98760519Y-74087875D01*
X98689942Y-74050000D01*
X98593885Y-73997239D01*
X98531124Y-73949076D01*
X98496524Y-73899004D01*
X98484953Y-73840518D01*
X98487521Y-73793447D01*
X98514240Y-73706479D01*
X98572751Y-73641574D01*
X98636053Y-73606531D01*
X98723648Y-73589232D01*
X98809341Y-73606228D01*
G37*
G36*
X94358198Y-73581433D02*
G01*
X94445058Y-73629050D01*
X94469770Y-73651104D01*
X94534958Y-73716291D01*
X94572479Y-73667102D01*
X94629479Y-73619492D01*
X94710315Y-73584805D01*
X94799597Y-73568123D01*
X94864309Y-73570728D01*
X94954770Y-73604268D01*
X95034577Y-73666787D01*
X95090090Y-73747375D01*
X95092719Y-73753423D01*
X95104853Y-73800049D01*
X95113267Y-73875012D01*
X95118223Y-73982053D01*
X95119988Y-74124917D01*
X95120000Y-74139357D01*
X95120000Y-74460000D01*
X94990000Y-74460000D01*
X94860000Y-74460000D01*
X94860000Y-74188685D01*
X94858448Y-74081041D01*
X94854162Y-73988226D01*
X94847698Y-73918344D01*
X94839609Y-73879499D01*
X94838692Y-73877557D01*
X94793671Y-73832011D01*
X94729425Y-73815495D01*
X94675546Y-73824549D01*
X94640059Y-73845443D01*
X94614043Y-73883183D01*
X94596289Y-73942841D01*
X94585587Y-74029492D01*
X94580729Y-74148208D01*
X94580111Y-74225000D01*
X94580000Y-74460000D01*
X94450000Y-74460000D01*
X94320000Y-74460000D01*
X94320000Y-74171428D01*
X94319246Y-74053193D01*
X94316571Y-73968625D01*
X94311355Y-73911415D01*
X94302978Y-73875251D01*
X94290821Y-73853824D01*
X94288571Y-73851428D01*
X94230645Y-73818631D01*
X94165241Y-73819097D01*
X94105803Y-73851999D01*
X94095000Y-73863348D01*
X94080670Y-73885693D01*
X94070779Y-73917944D01*
X94064558Y-73967098D01*
X94061239Y-74040151D01*
X94060054Y-74144099D01*
X94060000Y-74182215D01*
X94060000Y-74460000D01*
X93930000Y-74460000D01*
X93800000Y-74460000D01*
X93800000Y-74030000D01*
X93800000Y-73600000D01*
X93920000Y-73600000D01*
X93987127Y-73601511D01*
X94023401Y-73608017D01*
X94037916Y-73622477D01*
X94040000Y-73639045D01*
X94042448Y-73662870D01*
X94055587Y-73661473D01*
X94088111Y-73633498D01*
X94090650Y-73631148D01*
X94171012Y-73581957D01*
X94263522Y-73565560D01*
X94358198Y-73581433D01*
G37*
G36*
X97519931Y-70832966D02*
G01*
X97520000Y-70838218D01*
X97508364Y-70913937D01*
X97476029Y-71012074D01*
X97426853Y-71123471D01*
X97364694Y-71238970D01*
X97322682Y-71306566D01*
X97256171Y-71410296D01*
X97210095Y-71489585D01*
X97181021Y-71552092D01*
X97165519Y-71605478D01*
X97160159Y-71657402D01*
X97160000Y-71669767D01*
X97178400Y-71746104D01*
X97227524Y-71812534D01*
X97298256Y-71862732D01*
X97381481Y-71890377D01*
X97468083Y-71889144D01*
X97474250Y-71887762D01*
X97566681Y-71856177D01*
X97633168Y-71808202D01*
X97680016Y-71736625D01*
X97713529Y-71634237D01*
X97719700Y-71607041D01*
X97752075Y-71481984D01*
X97788769Y-71392480D01*
X97831856Y-71334145D01*
X97858095Y-71314306D01*
X97945319Y-71282515D01*
X98029733Y-71288131D01*
X98106160Y-71328630D01*
X98169424Y-71401489D01*
X98208325Y-71485020D01*
X98246651Y-71598469D01*
X98191462Y-71728322D01*
X98155370Y-71806611D01*
X98107179Y-71902324D01*
X98055458Y-71998639D01*
X98038137Y-72029328D01*
X97995719Y-72108322D01*
X97962526Y-72179685D01*
X97943130Y-72233076D01*
X97940000Y-72251233D01*
X97931035Y-72299444D01*
X97909371Y-72361442D01*
X97882854Y-72416693D01*
X97869169Y-72436620D01*
X97849577Y-72433451D01*
X97819299Y-72419625D01*
X97790781Y-72408358D01*
X97786768Y-72414771D01*
X97782786Y-72439496D01*
X97762622Y-72491061D01*
X97730234Y-72561899D01*
X97689577Y-72644442D01*
X97644610Y-72731125D01*
X97599290Y-72814381D01*
X97557574Y-72886643D01*
X97523419Y-72940345D01*
X97500783Y-72967920D01*
X97496387Y-72970000D01*
X97472089Y-72986613D01*
X97444238Y-73027953D01*
X97437082Y-73042532D01*
X97407011Y-73098393D01*
X97381251Y-73128084D01*
X97364300Y-73127889D01*
X97360074Y-73106180D01*
X97370185Y-73065448D01*
X97394843Y-73013306D01*
X97398987Y-73006304D01*
X97422103Y-72957689D01*
X97416302Y-72935483D01*
X97415217Y-72935072D01*
X97415569Y-72915339D01*
X97433828Y-72865193D01*
X97468119Y-72788988D01*
X97516568Y-72691078D01*
X97538251Y-72649182D01*
X97594555Y-72539949D01*
X97633293Y-72460134D01*
X97656589Y-72404338D01*
X97660435Y-72390000D01*
X97740000Y-72390000D01*
X97750000Y-72400000D01*
X97760000Y-72390000D01*
X97750000Y-72380000D01*
X97740000Y-72390000D01*
X97660435Y-72390000D01*
X97666562Y-72367157D01*
X97665334Y-72343192D01*
X97661589Y-72335113D01*
X97654033Y-72288971D01*
X97673307Y-72232313D01*
X97713581Y-72177720D01*
X97747377Y-72149878D01*
X97779928Y-72114177D01*
X97816801Y-72051520D01*
X97846869Y-71984429D01*
X97885500Y-71895407D01*
X97933031Y-71799889D01*
X97984629Y-71706165D01*
X98035460Y-71622527D01*
X98080688Y-71557266D01*
X98115480Y-71518673D01*
X98120613Y-71514975D01*
X98153181Y-71485147D01*
X98154412Y-71449829D01*
X98124194Y-71399965D01*
X98119133Y-71393440D01*
X98057953Y-71344721D01*
X97983200Y-71326485D01*
X97906967Y-71338532D01*
X97841345Y-71380663D01*
X97826186Y-71398266D01*
X97810467Y-71432531D01*
X97790962Y-71493672D01*
X97771558Y-71569312D01*
X97769149Y-71580000D01*
X97747897Y-71662094D01*
X97723343Y-71736512D01*
X97700590Y-71787901D01*
X97699344Y-71790000D01*
X97631855Y-71865333D01*
X97543845Y-71913270D01*
X97444579Y-71933112D01*
X97343321Y-71924159D01*
X97249337Y-71885713D01*
X97181826Y-71829025D01*
X97136935Y-71757142D01*
X97121065Y-71674343D01*
X97134838Y-71577647D01*
X97178874Y-71464072D01*
X97253795Y-71330638D01*
X97300537Y-71259207D01*
X97385007Y-71121652D01*
X97440313Y-70998907D01*
X97469768Y-70885000D01*
X97483011Y-70832761D01*
X97499215Y-70803482D01*
X97513236Y-70801953D01*
X97519931Y-70832966D01*
G37*
D12*
%TO.C,RV1*%
X115335000Y-70280000D02*
X115335000Y-75330000D01*
X115335000Y-70280000D02*
X125085000Y-70280000D01*
X115335000Y-75330000D02*
X125085000Y-75330000D01*
X125085000Y-70280000D02*
X125085000Y-75330000D01*
%TO.C,C2*%
X96990000Y-87109420D02*
X96990000Y-87390580D01*
X98010000Y-87109420D02*
X98010000Y-87390580D01*
%TO.C,C1*%
X90240000Y-77604437D02*
X90240000Y-85060000D01*
X90240000Y-85060000D02*
X92990000Y-85060000D01*
X91304437Y-76540000D02*
X90240000Y-77604437D01*
X91304437Y-76540000D02*
X92990000Y-76540000D01*
X97010000Y-75300000D02*
X97010000Y-76300000D01*
X97510000Y-75800000D02*
X96510000Y-75800000D01*
X97695563Y-76540000D02*
X96010000Y-76540000D01*
X97695563Y-76540000D02*
X98760000Y-77604437D01*
X98760000Y-77604437D02*
X98760000Y-85060000D01*
X98760000Y-85060000D02*
X96010000Y-85060000D01*
%TO.C,R1*%
X125977500Y-72287258D02*
X125977500Y-71812742D01*
X127022500Y-72287258D02*
X127022500Y-71812742D01*
%TO.C,C4*%
X111990000Y-75065580D02*
X111990000Y-74784420D01*
X113010000Y-75065580D02*
X113010000Y-74784420D01*
%TO.C,J2*%
X90020000Y-88220000D02*
X91400000Y-88220000D01*
X90020000Y-89600000D02*
X90020000Y-88220000D01*
X90020000Y-90870000D02*
X90020000Y-90980000D01*
X90020000Y-90870000D02*
X92780000Y-90870000D01*
X90020000Y-90980000D02*
X92780000Y-90980000D01*
X92780000Y-90870000D02*
X92780000Y-90980000D01*
%TO.C,R3*%
X111977500Y-71437742D02*
X111977500Y-71912258D01*
X113022500Y-71437742D02*
X113022500Y-71912258D01*
%TO.C,L1*%
X110800000Y-89650000D02*
X110800000Y-77450000D01*
X111200000Y-77050000D02*
X113550000Y-77050000D01*
X111200000Y-90050000D02*
X113550000Y-90050000D01*
X113550000Y-90050000D02*
X113550000Y-90800000D01*
X121050000Y-77050000D02*
X123400000Y-77050000D01*
X121050000Y-90050000D02*
X123400000Y-90050000D01*
X123800000Y-77450000D02*
X123800000Y-89650000D01*
X110800000Y-77450000D02*
G75*
G02*
X111200000Y-77050000I400000J0D01*
G01*
X111200000Y-90050000D02*
G75*
G02*
X110800000Y-89650000I-1J399999D01*
G01*
X123400000Y-77050000D02*
G75*
G02*
X123800000Y-77450000I0J-400000D01*
G01*
X123800000Y-89650000D02*
G75*
G02*
X123400000Y-90050000I-399999J-1D01*
G01*
%TD*%
M02*
